<svg xmlns="http://www.w3.org/2000/svg" width="512" height="512" viewBox="0 0 512 512">
  <defs><linearGradient id="bg" x1="0" y1="0" x2="1" y2="1"><stop offset="0%" stop-color="#4f46e5"/><stop offset="100%" stop-color="#1e3a8a"/></linearGradient></defs>
  <rect x="16" y="16" width="480" height="480" rx="72" fill="url(#bg)"/>
  <circle cx="256" cy="256" r="170" fill="#93c5fd" opacity="0.28"/>
  <rect x="214" y="250" width="84" height="170" rx="22" fill="#1f2937"/>
  <path d="M214 292h84l30 128H184z" fill="#f59e0b"/>
  <rect x="242" y="300" width="28" height="120" fill="#fde68a"/>
  <circle cx="256" cy="206" r="52" fill="#fed7aa"/>
  <path d="M192 206a64 64 0 0 1 128 0z" fill="#facc15"/>
  <rect x="186" y="198" width="140" height="26" rx="13" fill="#f59e0b"/>
  <rect x="248" y="154" width="16" height="44" fill="#fde047"/>
  <rect x="322" y="186" width="12" height="70" rx="6" fill="#8b5e3c"/>
  <rect x="302" y="248" width="54" height="14" rx="7" fill="#94a3b8"/>
  <rect x="16" y="16" width="480" height="480" rx="72" fill="none" stroke="#ffffff" stroke-opacity=".35" stroke-width="8"/>
</svg>
